<svg width="407" height="472" viewBox="0 0 407 472" fill="none" xmlns="http://www.w3.org/2000/svg">
<g clip-path="url(#clip0)">
<path d="M423.586 331.94C418.088 319.614 410.504 307.476 399.414 293.456C371.45 258.266 362.919 179.795 362.824 179.042C362.445 175.278 359.791 172.173 356.283 171.044C352.681 169.915 348.795 170.95 346.236 173.773C312.869 211.127 326.898 268.805 334.481 291.857C336.567 298.161 338.842 305.594 340.452 313.121C352.775 373.998 328.982 401.567 323.39 407.118C317.987 408.624 314.29 407.871 310.877 404.201C299.123 391.311 295.237 349.064 300.735 294.021C301.873 282.824 301.588 272.756 299.976 263.347C288.381 195.693 245.867 152.297 235.044 137.077C205.279 93.0428 202.246 19.746 202.151 19.0873C202.056 15.606 200.066 12.501 196.938 10.9955C193.904 9.49007 190.208 9.67825 187.364 11.6542C137.693 45.4328 141.959 126.821 148.878 172.267C150.49 182.806 153.618 193.532 159.021 207.081C178.264 255.538 155.229 318.108 155.04 318.673C154.85 319.237 154.661 319.708 154.566 320.272C151.627 335.703 146.698 344.924 141.2 344.924C140.631 344.924 140.063 344.83 139.399 344.642C132.669 343.231 129.162 336.08 129.067 329.87C128.688 249.61 48.2096 222.606 47.3565 222.324C43.7544 221.195 39.7731 222.23 37.3086 225.146C34.7492 228.063 34.2752 232.109 35.9815 235.496C36.9294 237.472 39.9627 246.129 37.8773 276.708C36.0763 304.183 31.0523 331.375 22.995 357.438C3.8471 419.915 6.88043 479.098 7.07002 481.921C21.794 642.164 252.049 670.243 388.701 579.963C403.678 570.084 415.906 558.793 424.912 546.373C475.342 476.746 445.672 382.184 423.586 331.94ZM73.3303 485.026C73.6147 490.201 69.6335 494.623 64.4199 494.905H63.8512C58.8272 494.905 54.6564 491.047 54.372 486.061C53.5189 472.323 53.7085 457.927 54.7512 442.308C55.1303 437.133 59.6803 433.276 64.8939 433.557C70.1074 433.933 74.0887 438.45 73.7095 443.625C72.6659 458.492 72.4772 472.041 73.3303 485.026ZM77.9742 401.661C77.4054 406.46 73.3294 409.941 68.5898 409.941C68.2106 409.941 67.8315 409.941 67.3575 409.847C62.2388 409.188 58.5419 404.578 59.1106 399.403L63.6606 363.084C64.3242 358.003 68.969 354.333 74.2773 354.898C79.4908 355.556 83.1877 360.261 82.5242 365.436L77.9742 401.661Z" fill="#3D3D3D"/>
<path d="M359.454 138.66C354.284 137.865 350.739 133.069 351.536 127.937C352.128 124.114 355.553 104.544 364.847 94.7026C368.424 90.9079 374.414 90.7103 378.247 94.2754C382.065 97.8264 382.259 103.781 378.677 107.576C374.743 111.743 371.391 123.669 370.272 130.805C369.472 135.882 364.701 139.446 359.454 138.66Z" fill="#3D3D3D"/>
<path d="M13.8818 185.528C12.0675 178.531 7.5592 166.991 3.23196 163.223C-0.706636 159.796 -1.10002 153.851 2.35229 149.946C5.79607 146.032 11.7803 145.632 15.7283 149.073C25.9431 157.963 31.2799 177.107 32.2477 180.851C33.5435 185.882 30.4893 191 25.4255 192.295C20.2499 193.587 15.1719 190.476 13.8818 185.528Z" fill="#3D3D3D"/>
</g>
<defs>
<clipPath id="clip0">
<rect width="455" height="472" fill="white"/>
</clipPath>
</defs>
</svg>
