<!-- Generated by IcoMoon.io -->
<svg version="1.1" xmlns="http://www.w3.org/2000/svg" width="239" height="335" viewBox="0 0 239 335" fill="#3D3D3D">
<title>tablet-firecamp</title>
<path d="M229.19 174.57c-2.966-6.665-7.058-13.229-13.042-20.81-15.087-19.030-19.69-61.464-19.741-61.871-0.205-2.035-1.637-3.714-3.529-4.325-1.944-0.61-4.040-0.051-5.421 1.475-18.003 20.2-10.434 51.39-6.342 63.855 1.125 3.409 2.352 7.429 3.221 11.499 6.649 32.92-6.189 47.827-9.206 50.83-2.915 0.814-4.91 0.407-6.75-1.578-6.342-6.971-8.439-29.816-5.473-59.581 0.614-6.055 0.461-11.499-0.41-16.587-6.255-36.585-29.194-60.052-35.033-68.282-16.059-23.812-17.695-63.448-17.747-63.804-0.050-1.883-1.125-3.562-2.813-4.376-1.636-0.814-3.631-0.712-5.165 0.356-26.799 18.266-24.498 62.278-20.764 86.853 0.87 5.699 2.557 11.499 5.473 18.826 10.382 26.204-2.046 60.039-2.148 60.344s-0.204 0.559-0.256 0.865c-1.585 8.344-4.245 13.331-7.211 13.331-0.307 0-0.614-0.051-0.972-0.153-3.631-0.763-5.524-4.63-5.575-7.988-0.204-43.401-43.626-58.004-44.086-58.157-1.944-0.61-4.091-0.050-5.421 1.527-1.381 1.578-1.637 3.765-0.716 5.597 0.511 1.069 2.148 5.75 1.023 22.285-0.972 14.857-3.682 29.561-8.030 43.655-10.331 33.785-8.694 65.789-8.592 67.315 7.944 86.652 132.175 101.836 205.904 53.017 8.081-5.342 14.679-11.448 19.537-18.165 27.209-37.651 11.201-88.786-0.715-115.956zM40.214 257.353c0.153 2.799-1.995 5.19-4.807 5.342h-0.307c-2.711 0-4.961-2.086-5.114-4.782-0.46-7.429-0.358-15.213 0.205-23.66 0.204-2.798 2.659-4.884 5.473-4.732 2.813 0.203 4.961 2.645 4.756 5.444-0.563 8.039-0.665 15.366-0.204 22.387zM42.719 212.273c-0.307 2.595-2.506 4.477-5.063 4.477-0.204 0-0.409 0-0.665-0.051-2.762-0.355-4.756-2.849-4.45-5.647l2.455-19.64c0.358-2.747 2.864-4.732 5.728-4.427 2.813 0.356 4.807 2.901 4.45 5.699l-2.455 19.59z"></path>
<path d="M194.589 70.053c-2.79-0.43-4.702-3.023-4.273-5.798 0.319-2.067 2.167-12.651 7.182-17.972 1.93-2.052 5.161-2.159 7.229-0.231 2.060 1.92 2.165 5.14 0.232 7.192-2.123 2.253-3.93 8.703-4.535 12.562-0.432 2.745-3.005 4.672-5.836 4.247z"></path>
<path d="M8.139 95.397c-0.979-3.783-3.411-10.024-5.746-12.062-2.125-1.854-2.337-5.068-0.475-7.18 1.858-2.117 5.087-2.333 7.217-0.472 5.511 4.807 8.391 15.16 8.913 17.184 0.699 2.721-0.949 5.489-3.681 6.189-2.793 0.698-5.532-0.984-6.228-3.659z"></path>
</svg>
