<svg width="304" height="472" viewBox="0 0 304 472" fill="none" xmlns="http://www.w3.org/2000/svg">
<path d="M3 152V276C3 314.667 15.3333 348.667 40 378C64.6667 407.333 95.6667 424.333 133 429C178.333 434.333 217.667 422.333 251 393C284.333 363.667 301 326.667 301 282V239C301 227.667 296.833 217.833 288.5 209.5C280.167 201.167 270.333 197 259 197V282C259 313.333 247.333 339.667 224 361C200.667 382.333 173 391.667 141 389C113.667 384.333 90.8333 371.167 72.5 349.5C54.1667 327.833 45 303.333 45 276V195C45 183 40.8333 172.833 32.5 164.5C24.1667 156.167 14.3333 152 3 152ZM237 237V173C237 159 230 152 216 152C202 152 195 159 195 173V237C195 251.667 202 259 216 259C230 259 237 251.667 237 237ZM173 216V152C173 138 166 131 152 131C138 131 131 138 131 152V216C131 230 138 237 152 237C166 237 173 230 173 216ZM109 24C109 10 102 3 88 3C74 3 67 10 67 24V216H109V24Z" fill="#ff6b09"/>
</svg>
