<svg width="246" height="289" viewBox="0 0 246 289" fill="none" xmlns="http://www.w3.org/2000/svg">
<g clip-path="url(#clip0)">
<g filter="url(#filter0_d)">
<path d="M258.608 196.978C255.261 189.457 250.644 182.051 243.892 173.497C226.868 152.025 221.674 104.144 221.617 103.684C221.386 101.388 219.77 99.4932 217.635 98.8043C215.442 98.1153 213.076 98.7469 211.518 100.469C191.204 123.262 199.745 158.455 204.362 172.521C205.631 176.367 207.016 180.903 207.997 185.496C215.499 222.641 201.014 239.462 197.609 242.85C194.32 243.768 192.069 243.309 189.992 241.07C182.836 233.204 180.47 207.427 183.817 173.841C184.51 167.009 184.337 160.866 183.355 155.125C176.297 113.844 150.414 87.3651 143.825 78.0788C125.705 51.2102 123.858 6.48674 123.8 6.08486C123.743 3.96064 122.531 2.06606 120.626 1.14748C118.78 0.228896 116.529 0.343719 114.798 1.54936C84.5588 22.1601 87.1557 71.8209 91.3684 99.5506C92.3494 105.981 94.2538 112.526 97.5432 120.793C109.258 150.36 95.2348 188.538 95.1194 188.883C95.004 189.227 94.8886 189.514 94.8309 189.859C93.0419 199.274 90.0411 204.901 86.694 204.901C86.3477 204.901 86.0015 204.843 85.5975 204.728C81.5002 203.867 79.365 199.504 79.3073 195.715C79.0765 146.743 30.0821 130.266 29.5627 130.093C27.3698 129.405 24.9461 130.036 23.4457 131.816C21.8875 133.596 21.599 136.064 22.6377 138.131C23.2148 139.337 25.0615 144.619 23.7919 163.277C22.6955 180.041 19.6369 196.633 14.7317 212.536C3.07462 250.657 4.92128 286.769 5.0367 288.492C14.0005 386.267 154.178 403.4 237.37 348.314C246.488 342.286 253.933 335.397 259.415 327.818C290.116 285.334 272.054 227.635 258.608 196.978ZM45.3754 290.386C45.5485 293.544 43.1248 296.242 39.9508 296.414H39.6046C36.546 296.414 34.0069 294.06 33.8337 291.018C33.3144 282.636 33.4298 273.852 34.0646 264.321C34.2954 261.164 37.0654 258.81 40.2394 258.982C43.4133 259.211 45.8371 261.967 45.6062 265.125C44.9709 274.196 44.856 282.463 45.3754 290.386ZM48.2025 239.52C47.8563 242.448 45.3748 244.572 42.4894 244.572C42.2586 244.572 42.0277 244.572 41.7392 244.514C38.623 244.113 36.3723 241.299 36.7186 238.142L39.4886 215.981C39.8925 212.881 42.7202 210.642 45.9519 210.986C49.1259 211.388 51.3765 214.259 50.9725 217.416L48.2025 239.52Z" fill="#3D3D3D"/>
<path d="M219.566 79.0444C216.418 78.5592 214.26 75.633 214.745 72.5018C215.105 70.1691 217.19 58.2276 222.849 52.2229C225.027 49.9075 228.673 49.7869 231.006 51.9622C233.331 54.129 233.449 57.7625 231.268 60.0779C228.873 62.6207 226.833 69.8976 226.151 74.2517C225.664 77.3496 222.76 79.5238 219.566 79.0444Z" fill="#3D3D3D"/>
<path d="M9.18354 107.642C8.079 103.373 5.33439 96.331 2.70001 94.0322C0.302228 91.9407 0.0627374 88.3135 2.16447 85.9309C4.26102 83.5426 7.90414 83.2986 10.3077 85.3981C16.5263 90.8224 19.7753 102.504 20.3645 104.788C21.1534 107.858 19.294 110.981 16.2113 111.771C13.0604 112.559 9.96895 110.661 9.18354 107.642Z" fill="#3D3D3D"/>
</g>
<line x1="193.5" y1="286.003" x2="192.5" y2="436.003" stroke="black"/>
</g>
<defs>
<filter id="filter0_d" x="-3.26758" y="0.540039" width="283.535" height="386.835" filterUnits="userSpaceOnUse" color-interpolation-filters="sRGB">
<feFlood flood-opacity="0" result="BackgroundImageFix"/>
<feColorMatrix in="SourceAlpha" type="matrix" values="0 0 0 0 0 0 0 0 0 0 0 0 0 0 0 0 0 0 127 0" result="hardAlpha"/>
<feOffset dy="4"/>
<feGaussianBlur stdDeviation="2"/>
<feComposite in2="hardAlpha" operator="out"/>
<feColorMatrix type="matrix" values="0 0 0 0 0 0 0 0 0 0 0 0 0 0 0 0 0 0 0.25 0"/>
<feBlend mode="normal" in2="BackgroundImageFix" result="effect1_dropShadow"/>
<feBlend mode="normal" in="SourceGraphic" in2="effect1_dropShadow" result="shape"/>
</filter>
<clipPath id="clip0">
<rect width="246" height="288" fill="white" transform="translate(0 0.5)"/>
</clipPath>
</defs>
</svg>
